<svg width="41" height="40" viewBox="0 0 41 40" fill="none" xmlns="http://www.w3.org/2000/svg">
<path d="M30.5012 37.5561C29.4167 38.7836 28.4576 39.1957 27.6239 38.7923C27.1447 38.5462 26.8561 38.1501 26.758 37.604C26.6403 36.9487 26.9003 36.2767 27.5378 35.5879C30.542 31.7276 32.3503 28.7774 32.9627 26.7372C33.6606 24.5675 33.882 22.7727 33.6271 21.3529C33.274 19.387 32.5889 17.9941 31.5717 17.1742C30.5349 16.2451 29.4322 15.5548 28.2636 15.1033C27.0755 14.5426 25.9728 13.8523 24.9556 13.0324C23.9384 12.2126 23.2533 10.8196 22.9003 8.85373C22.5472 6.88782 22.9263 5.06248 24.0375 3.37768C25.1487 1.69288 26.8602 0.626269 29.1721 0.177844C31.7993 -0.33173 34.025 0.253754 35.8493 1.9343C37.7786 3.59447 39.0473 6.11742 39.6553 9.50315C40.5574 14.5271 40.3303 19.3181 38.9738 23.876C37.6173 28.4339 34.7931 32.9939 30.5012 37.5561Z" fill="#A8B84A"/>
<path d="M16.1977 1.83444C15.4167 1.33001 14.4169 1.61953 13.1985 2.703C8.411 6.6971 5.0808 10.8721 3.20799 15.228C1.33519 19.5838 0.55667 24.3118 0.872403 29.412C1.08518 32.8491 2.05347 35.512 3.77724 37.4007C5.39433 39.2966 7.53635 40.1553 10.2034 39.977C12.5504 39.8201 14.3727 38.9746 15.6703 37.4405C16.968 35.9064 17.555 34.1415 17.4315 32.1458C17.3079 30.15 16.7885 28.6818 15.8733 27.741C14.9581 26.8002 13.943 25.9774 12.8282 25.2726C11.7202 24.6787 10.7051 23.8559 9.78302 22.8042C8.8678 21.8634 8.34841 20.3952 8.22487 18.3995C8.13564 16.9581 8.56268 15.2039 9.50595 13.1368C10.3494 11.1878 12.4852 8.48432 15.9133 5.02644C16.6257 4.42213 16.9614 3.78736 16.9202 3.12212C16.8859 2.56775 16.6451 2.13853 16.1977 1.83444Z" fill="#9870D9"/>
</svg>
